HIERARCHY
ROOT pelvis
{
  OFFSET 0 100 0
  CHANNELS 6 Xposition Yposition Zposition Zrotation Xrotation Yrotation
  JOINT pelvis_right_femur
  {
    OFFSET -10.78128 -3.44521 -0.5502486
    CHANNELS 3 Zrotation Xrotation Yrotation
    JOINT right_femur_tibia
    {
      OFFSET -0.8047443 -44.0398 -0.1307829
      CHANNELS 3 Zrotation Xrotation Yrotation
      JOINT right_tibia_foot
      {
        OFFSET 3.006224 -47.83518 -5
        CHANNELS 3 Zrotation Xrotation Yrotation
        End Site
        {
          OFFSET 0 -5 15
        }
      }
    }
  }
  JOINT pelvis_left_femur
  {
    OFFSET 10.78128 -3.44521 -0.5502486
    CHANNELS 3 Zrotation Xrotation Yrotation
    JOINT left_femur_tibia
    {
      OFFSET 0.8047443 -44.0398 -0.1307829
      CHANNELS 3 Zrotation Xrotation Yrotation
      JOINT left_tibia_foot
      {
        OFFSET -4.370144 -48.10324 -4.275266
        CHANNELS 3 Zrotation Xrotation Yrotation
        End Site
        {
          OFFSET 0 -5 15
        }
      }
    }
  }
  JOINT pelvis_spine1
  {
    OFFSET 0 6.468898 -3.129235
    CHANNELS 3 Zrotation Xrotation Yrotation
    JOINT spine1
    {
      OFFSET 0 23.15396 4.99043
      CHANNELS 3 Zrotation Xrotation Yrotation
      JOINT spine2
      {
        OFFSET 0 20.79997 -5.064912
        CHANNELS 3 Zrotation Xrotation Yrotation
        JOINT neck
        {
          OFFSET 0 14.38658 9.616178
          CHANNELS 3 Zrotation Xrotation Yrotation
          End Site
          {
            OFFSET 0 20 0
          }
        }
      }
      JOINT right_manubrium
      {
        OFFSET -5.722621 16.35077 3.967754
        CHANNELS 3 Zrotation Xrotation Yrotation
        JOINT right_clavicle
        {
          OFFSET -13.16364 1.694482 -4.693211
          CHANNELS 3 Zrotation Xrotation Yrotation
          JOINT right_humerus
          {
            OFFSET -28.5034 -0.3100689 -2.792744
            CHANNELS 3 Zrotation Xrotation Yrotation
            JOINT right_radius
            {
              OFFSET -25.15693 0.02248979 -1.271978
              CHANNELS 3 Zrotation Xrotation Yrotation
              End Site
              {
                OFFSET -15 0 0
              }
            }
          }
        }
      }
      JOINT left_manubrium
      {
        OFFSET 5.722621 16.35077 3.967754
        CHANNELS 3 Zrotation Xrotation Yrotation
        JOINT left_clavicle
        {
          OFFSET 13.16364 1.694482 -4.693211
          CHANNELS 3 Zrotation Xrotation Yrotation
          JOINT left_humerus
          {
            OFFSET 29.39168 -1.063119 -2.237045
            CHANNELS 3 Zrotation Xrotation Yrotation
            JOINT left_radius
            {
              OFFSET 24.59957 -0.9528479 0.9047498
              CHANNELS 3 Zrotation Xrotation Yrotation
              End Site
              {
                OFFSET 15 -0 -0
              }
            }
          }
        }
      }
    }
  }
}
MOTION
Frames: 7
Frame Time: 0.0416666666667
0 103.5113 0 2.233553 -1.143759 0.2906257 1.150223 -9.819987 8.625375 -0 33.60086 -0 -5.238414 -17.85576 -2.149736 -8.091481 10.03807 -23.39542 -0 5.458741 -0 7.557525 -16.07546 26.41931 -4.356025 -5.098756 4.995697 2.021232 9.216251 -7.721255 0.8272742 22.80418 7.17429 3.25628 -23.06988 8.787075 6.35096 -19.70295 11.56758 86.35939 35.9605 -19.85442 -0 0 16.15918 -7.594615 8.266655 4.620604 5.525646 -19.49681 -1.692425 -94.75385 29.73957 22.84841 0 0 -16.06971 3.502497 17.87154 9.539246
0.3520217 103.3895 1.489488 2.181729 -0.9526875 0.5213458 1.235234 -10.1824 8.355193 -0 31.90462 -0 -5.244271 -17.34658 -1.8455 -8.054817 10.04441 -23.07946 -0 6.166465 -0 7.187318 -16.1379 25.95424 -4.310759 -5.006961 5.008015 2.090857 9.196333 -7.704867 0.827565 22.70699 7.191183 3.282989 -23.12608 8.774001 6.298505 -19.55276 11.55119 86.4387 35.96606 -20.00462 -0 0 15.89938 -7.671411 8.344367 4.655141 5.615836 -19.56138 -1.691825 -94.61528 29.68633 22.59552 0 0 -16.41971 3.544538 17.72567 9.494763
0.7214147 103.2585 3.175191 2.113348 -0.7116876 0.7445419 1.332071 -10.52548 7.994325 -0 29.62898 -0 -5.268405 -16.6973 -1.432606 -8.005469 9.998429 -22.62463 -0 7.271947 -0 6.644346 -16.13946 25.28284 -4.236653 -4.896391 5.027074 2.174319 9.17349 -7.681884 0.8207032 22.58804 7.21191 3.313721 -23.18283 8.746382 6.226925 -19.34902 11.5286 86.55309 35.97413 -20.20056 -0 0 15.54373 -7.789501 8.458594 4.712806 5.716608 -19.64163 -1.694861 -94.43479 29.60857 22.27657 0 0 -16.84324 3.585178 17.52126 9.451588
1.109594 103.1281 5.105138 2.035727 -0.4432266 0.965119 1.425154 -10.73946 7.56714 -0 26.92454 -0 -5.318876 -15.97184 -0.9350928 -7.945772 9.869246 -22.04245 -0 8.795069 -0 5.939357 -16.02813 24.42373 -4.1308 -4.781808 5.053329 2.260036 9.151591 -7.65305 0.8028149 22.46215 7.233859 3.343368 -23.22504 8.699909 6.140258 -19.10401 11.50105 86.69936 35.98456 -20.42537 -0 0 15.11183 -7.950558 8.60769 4.796911 5.809181 -19.72833 -1.703637 -94.22767 29.50766 21.92506 0 0 -17.28461 3.612312 17.26661 9.422423
1.517507 103.0113 7.319387 1.955035 -0.1655254 1.189111 1.504387 -10.74721 7.093539 -0 23.91766 -0 -5.399664 -15.22062 -0.3732904 -7.876725 9.633553 -21.34602 -0 10.73043 -0 5.09091 -15.76842 23.40251 -3.99297 -4.673624 5.087559 2.33931 9.133614 -7.618572 0.7716533 22.3404 7.254765 3.368208 -23.24194 8.631938 6.041805 -18.82926 11.46991 86.87242 35.99678 -20.66358 -0 0 14.6226 -8.155546 8.789145 4.909758 5.880416 -19.81428 -1.719418 -94.00627 29.3851 21.56745 0 0 -17.70266 3.617736 16.96957 9.415773
1.94637 102.9216 9.849549 1.876942 0.1059024 1.422601 1.563542 -10.49951 6.58973 -0 20.71429 -0 -5.50976 -14.48292 0.2355387 -7.798373 9.27031 -20.55038 -0 13.04325 -0 4.126947 -15.34234 22.25424 -3.826454 -4.577734 5.131767 2.405833 9.121876 -7.577425 0.7266979 22.23069 7.272417 3.385821 -23.22637 8.541263 5.934092 -18.5367 11.43686 87.06346 36.00986 -20.89849 -0 0 14.09642 -8.40604 8.999571 5.053384 5.92279 -19.89387 -1.74241 -93.78052 29.24234 21.22435 0 0 -18.06973 3.596767 16.63765 9.436208
2.398432 102.8699 12.71741 1.80816 0.3552615 1.670661 1.597075 -9.960765 6.06948 -0 17.40775 -0 -5.642319 -13.79279 0.876286 -7.710324 8.749886 -19.672 -0 15.66959 -0 3.085145 -14.74697 21.02537 -3.638887 -4.495923 5.190686 2.454357 9.11855 -7.526225 0.6689727 22.1391 7.284143 3.394717 -23.17276 8.427315 5.818883 -18.24054 11.40426 87.2572 36.02289 -21.10757 -0 0 13.55846 -8.70686 9.234988 5.231181 5.933369 -19.96184 -1.771567 -93.55913 29.0805 20.91366 0 0 -18.3676 3.546892 16.2779 9.48561
